# xmcd CD database file
#
# Track frame offsets:
#	150
#	12322
#	26278
#	35450
#	44937
#	55573
#	69860
#	78259
#	87971
#	102127
#	120010
#	134770
#	150863
#	164936
#
# Disc length: 2406 seconds
#
# Revision: 0
# Processed by: cddbd v1.5.1PL2 Copyright (c) Steve Scherf et al.
# Submitted via: CDex 1.51
#
DISCID=a609640e
DTITLE=Various Artist - L'âme des poètes
DYEAR=1900
DGENRE=Francais
TTITLE0=Charles Trenet  -  l'âme des poètes
TTITLE1=Monique Leyrac  -  le petit bonheur
TTITLE2=Georges Brassens  -  j'ai rendez-vous avec vous
TTITLE3=Félix Leclerc  -  moi mes souliers
TTITLE4=Jacques Brel  -  il y a
TTITLE5=Léo Ferré  -  Monsieur Williams
TTITLE6=Yves Montand  -  quand le soldat
TTITLE7=Gilbert Bécaud  -  mes mains
TTITLE8=Léo Ferré  -  l'île St-Louis
TTITLE9=Juliette Gréco  -  Les Feuilles mortes
TTITLE10=Georges Brassens  -  le gorille
TTITLE11=Jacques Pills  -  tout ça parce que qu'au bois d'Chaville
TTITLE12=Patachou  -  le piano du pauvre
TTITLE13=Mouloudji  -  un jour tu verras
EXTD=
EXTT0=
EXTT1=
EXTT2=
EXTT3=
EXTT4=
EXTT5=
EXTT6=
EXTT7=
EXTT8=
EXTT9=
EXTT10=
EXTT11=
EXTT12=
EXTT13=
PLAYORDER=
